#N canvas 264 122 473 491 10;
#X obj 170 117 * 440;
#X floatatom 168 53 5 0 0 0 - - -;
#X floatatom 183 154 5 0 0 0 - - -;
#X obj 166 202 osc~;
#X obj 157 274 dac~;
#X obj 164 229 *~ 0.05;
#X obj 171 82 note_phint6;
#X obj 260 82 note_bohlen;
#X floatatom 260 52 5 0 0 0 - - -;
#X connect 0 0 2 0;
#X connect 1 0 6 0;
#X connect 2 0 3 0;
#X connect 3 0 5 0;
#X connect 5 0 4 0;
#X connect 5 0 4 1;
#X connect 6 0 0 0;
#X connect 7 0 0 0;
#X connect 8 0 7 0;
