#N canvas 89 190 722 461 10;
#X obj 69 69 inlet chord;
#X obj 225 70 inlet oct;
#X obj 347 66 inlet tuning;
#X obj 140 341 outlet;
#X obj 41 146 unpack f f f f;
#X text 56 47 negative note => omitted;
#X obj 142 306 pack f f f f;
#X obj 308 217 to_freq;
#X obj 230 218 to_freq;
#X obj 154 218 to_freq;
#X obj 76 219 to_freq;
#X floatatom 22 193 5 0 0 0 - - -;
#X floatatom 61 256 5 0 0 0 - - -;
#X floatatom 152 107 5 0 0 0 - - -;
#X connect 0 0 4 0;
#X connect 1 0 7 1;
#X connect 1 0 8 1;
#X connect 1 0 9 1;
#X connect 1 0 10 1;
#X connect 1 0 13 0;
#X connect 2 0 7 2;
#X connect 2 0 8 2;
#X connect 2 0 9 2;
#X connect 2 0 10 2;
#X connect 4 0 10 0;
#X connect 4 0 11 0;
#X connect 4 1 9 0;
#X connect 4 2 8 0;
#X connect 4 3 7 0;
#X connect 6 0 3 0;
#X connect 7 0 6 3;
#X connect 8 0 6 2;
#X connect 9 0 6 1;
#X connect 10 0 6 0;
#X connect 10 0 12 0;
