#N canvas 108 58 450 300 10;
#X obj 74 14 inlet bang;
#X obj 102 86 f 0;
#X obj 150 86 + 1;
#X obj 227 65 f \$1;
#X obj 230 38 loadbang;
#X obj 87 226 outlet;
#X obj 100 152 select 0;
#X obj 146 111 mod 2;
#X obj 146 181 t b;
#X obj 158 226 outlet others;
#X obj 163 22 inlet reset;
#X msg 160 49 0;
#X connect 0 0 1 0;
#X connect 1 0 2 0;
#X connect 1 0 6 0;
#X connect 2 0 7 0;
#X connect 3 0 7 1;
#X connect 4 0 3 0;
#X connect 6 0 5 0;
#X connect 6 1 8 0;
#X connect 7 0 1 1;
#X connect 8 0 9 0;
#X connect 10 0 11 0;
#X connect 11 0 1 1;
