#N canvas 173 77 585 565 10;
#X obj 164 20 inlet dur_freq_amp;
#X obj 162 53 unpack f f f;
#X obj 87 277 vline~;
#X text 172 89 segment durations;
#X msg 87 249 1 \$1 \, 0.7 \$2 \$1 \, 0 \$3 \$4;
#X obj 190 178 pack f f f f;
#N canvas 582 181 456 485 wave 0;
#X obj 181 18 inlet~ freq;
#X obj 173 120 osc~;
#X obj 77 131 phasor~;
#X obj 157 449 outlet~;
#X obj 158 329 sin~;
#X obj 300 167 lop~ 40;
#X obj 155 409 *~ 2;
#X obj 77 100 *~ -1;
#X obj 77 70 lop~ 20;
#X obj 77 216 -~ 0.4;
#X obj 157 365 vcf~ 30;
#X obj 174 150 *~ 0.7;
#X obj 77 246 *~ -0.6;
#X connect 0 0 1 0;
#X connect 0 0 5 0;
#X connect 0 0 8 0;
#X connect 1 0 11 0;
#X connect 2 0 9 0;
#X connect 4 0 10 0;
#X connect 5 0 10 1;
#X connect 6 0 3 0;
#X connect 7 0 2 0;
#X connect 8 0 7 0;
#X connect 9 0 12 0;
#X connect 10 0 6 0;
#X connect 11 0 4 0;
#X connect 12 0 4 0;
#X restore 316 344 pd wave;
#X obj 229 409 *~;
#X obj 379 112 sig~;
#X text 115 234 amp envelope;
#X obj 400 289 vline~;
#X text 428 246 FM noise envelope;
#X msg 400 261 5 0 \, 0.4 \$2 \$1 \, 0 \$3 \$2;
#X text 300 20 simple synth sound;
#X obj 228 450 outlet~;
#X obj 166 106 expr $f1/(8+100*$f2) \; $f1/(4+50*$f2) \; $f1/3 \; 2*$f1/3
;
#X floatatom 70 110 5 0 0 0 - - -;
#X obj 60 142 log;
#X floatatom 43 199 5 0 0 0 - - -;
#X connect 0 0 1 0;
#X connect 1 0 15 0;
#X connect 1 1 8 0;
#X connect 1 1 16 0;
#X connect 1 2 15 1;
#X connect 2 0 7 0;
#X connect 4 0 2 0;
#X connect 5 0 4 0;
#X connect 6 0 7 1;
#X connect 7 0 14 0;
#X connect 8 0 6 0;
#X connect 12 0 10 0;
#X connect 15 0 5 0;
#X connect 15 1 5 1;
#X connect 15 2 5 2;
#X connect 15 3 5 3;
#X connect 16 0 17 0;
#X connect 17 0 18 0;
