#N canvas 173 77 585 565 10;
#X obj 164 20 inlet dur_freq_amp;
#X obj 162 53 unpack f f f;
#X obj 87 277 vline~;
#X text 172 89 segment durations;
#X msg 87 249 1 \$1 \, 0.7 \$2 \$1 \, 0 \$3 \$4;
#X obj 190 178 pack f f f f;
#X obj 229 409 *~;
#X obj 379 112 sig~;
#X text 115 234 amp envelope;
#X text 300 20 simple synth sound;
#X obj 228 450 outlet~;
#X obj 166 106 expr $f1/(8+100*$f2) \; $f1/(4+50*$f2) \; $f1/3 \; 2*$f1/3
;
#X floatatom 70 110 5 0 0 0 - - -;
#X obj 60 142 log;
#X floatatom 43 199 5 0 0 0 - - -;
#X obj 337 277 osc~;
#X connect 0 0 1 0;
#X connect 1 0 11 0;
#X connect 1 1 7 0;
#X connect 1 1 12 0;
#X connect 1 2 11 1;
#X connect 2 0 6 0;
#X connect 4 0 2 0;
#X connect 5 0 4 0;
#X connect 6 0 10 0;
#X connect 7 0 15 0;
#X connect 11 0 5 0;
#X connect 11 1 5 1;
#X connect 11 2 5 2;
#X connect 11 3 5 3;
#X connect 12 0 13 0;
#X connect 13 0 14 0;
#X connect 15 0 6 1;
