#N canvas 409 22 790 734 10;
#X obj 257 115 unpack f f f f;
#X obj 254 43 inlet chord_freq;
#X obj 103 40 inlet dur_amp;
#X obj 118 388 pack f f f;
#X obj 127 353 randomize 10;
#X obj 109 83 unpack f f;
#X obj 90 310 spigot;
#X obj 123 286 > 1;
#X obj 242 387 pack f f f;
#X obj 251 352 randomize 10;
#X obj 214 309 spigot;
#X obj 247 285 > 1;
#X obj 372 386 pack f f f;
#X obj 381 351 randomize 10;
#X obj 344 308 spigot;
#X obj 377 284 > 1;
#X obj 496 385 pack f f f;
#X obj 505 350 randomize 10;
#X obj 468 307 spigot;
#X obj 501 283 > 1;
#X floatatom 25 139 5 0 0 0 - - -;
#X floatatom 69 143 5 0 0 0 - - -;
#X floatatom 421 150 5 0 0 0 - - -;
#X obj 118 412 instr_sine;
#X obj 242 411 instr_sine;
#X obj 372 410 instr_sine;
#X obj 496 409 instr_sine;
#X obj 169 555 *~;
#X obj 271 554 *~;
#X obj 377 554 *~;
#X obj 90 333 randomize 10;
#X obj 214 332 randomize 10;
#X obj 344 331 randomize 10;
#X obj 468 330 randomize 10;
#X obj 357 598 r \$0-f0;
#X obj 66 537 s \$0-f0;
#X obj 243 685 outlet~;
#X obj 39 493 unpack f f f;
#X obj 256 644 bp~ 100 2;
#X connect 0 0 7 0;
#X connect 0 0 3 1;
#X connect 0 1 11 0;
#X connect 0 1 8 1;
#X connect 0 2 15 0;
#X connect 0 2 12 1;
#X connect 0 3 16 1;
#X connect 0 3 19 0;
#X connect 0 3 22 0;
#X connect 1 0 0 0;
#X connect 2 0 5 0;
#X connect 3 0 23 0;
#X connect 3 0 37 0;
#X connect 4 0 3 2;
#X connect 5 0 6 0;
#X connect 5 0 10 0;
#X connect 5 0 14 0;
#X connect 5 0 18 0;
#X connect 5 0 20 0;
#X connect 5 1 4 0;
#X connect 5 1 9 0;
#X connect 5 1 13 0;
#X connect 5 1 17 0;
#X connect 5 1 21 0;
#X connect 6 0 30 0;
#X connect 7 0 6 1;
#X connect 8 0 24 0;
#X connect 9 0 8 2;
#X connect 10 0 31 0;
#X connect 11 0 10 1;
#X connect 12 0 25 0;
#X connect 13 0 12 2;
#X connect 14 0 32 0;
#X connect 15 0 14 1;
#X connect 16 0 26 0;
#X connect 17 0 16 2;
#X connect 18 0 33 0;
#X connect 19 0 18 1;
#X connect 23 0 27 0;
#X connect 23 0 38 0;
#X connect 24 0 27 1;
#X connect 24 0 28 0;
#X connect 24 0 38 0;
#X connect 25 0 27 1;
#X connect 25 0 28 1;
#X connect 25 0 29 0;
#X connect 25 0 38 0;
#X connect 26 0 27 1;
#X connect 26 0 28 1;
#X connect 26 0 29 1;
#X connect 26 0 38 0;
#X connect 27 0 38 0;
#X connect 28 0 38 0;
#X connect 29 0 38 0;
#X connect 30 0 3 0;
#X connect 31 0 8 0;
#X connect 32 0 12 0;
#X connect 33 0 16 0;
#X connect 34 0 38 1;
#X connect 37 1 35 0;
#X connect 38 0 36 0;
