#N canvas 457 131 803 628 10;
#X obj 254 84 unpack f f f f;
#X obj 250 30 inlet chord_freq;
#X obj 103 40 inlet dur_amp;
#X obj 72 168 unpack f f;
#X obj 309 499 outlet~;
#X floatatom 73 203 5 0 0 0 - - -;
#X floatatom 117 207 5 0 0 0 - - -;
#X obj 408 62 r \$0-seed;
#X obj 263 327 pack f f f f;
#X obj 429 132 r \$0-seed;
#X obj 435 196 r \$0-seed;
#X obj 453 255 r \$0-seed;
#X obj 102 79 t a b;
#X obj 140 137 s \$0-seed;
#X obj -45 273 delay;
#X obj 5 352 metro;
#X msg -39 306 stop;
#X obj 34 435 pack f f;
#X obj 31 403 f;
#X obj -13 230 t b f f;
#X obj 403 229 + 30;
#X obj 414 160 + 20;
#X obj 401 99 + 10;
#X floatatom 200 198 5 0 0 0 - - -;
#X floatatom 213 242 5 0 0 0 - - -;
#X obj -23 393 s \$0-b;
#X obj 198 36 r \$0-b;
#X obj 253 61 any;
#X obj 138 113 f 33;
#X obj 555 35 inlet seed;
#X obj 335 138 rand_elide \$2;
#X obj 323 189 rand_elide \$2;
#X obj 302 242 rand_elide \$2;
#X obj 276 296 rand_elide \$2;
#X obj 17 260 / \$1;
#X obj 298 421 play_chord_ring;
#X obj 7 290 t f f b;
#X obj 104 347 random 3;
#X msg 115 318 seed \$1;
#X obj 134 259 r \$0-seed;
#X obj 46 364 *;
#X floatatom 146 417 5 0 0 0 - - -;
#X obj 73 291 r \$0-b;
#X obj 102 368 + 3;
#X obj 102 395 / 4;
#X obj 130 291 + 40;
#X connect 0 0 33 0;
#X connect 0 1 32 0;
#X connect 0 2 31 0;
#X connect 0 3 30 0;
#X connect 1 0 27 1;
#X connect 2 0 12 0;
#X connect 3 0 5 0;
#X connect 3 0 19 0;
#X connect 3 1 6 0;
#X connect 6 0 17 1;
#X connect 7 0 22 0;
#X connect 8 0 35 1;
#X connect 9 0 21 0;
#X connect 10 0 20 0;
#X connect 11 0 33 1;
#X connect 12 0 3 0;
#X connect 12 1 28 0;
#X connect 14 0 16 0;
#X connect 15 0 18 0;
#X connect 15 0 25 0;
#X connect 16 0 15 0;
#X connect 17 0 35 0;
#X connect 18 0 17 0;
#X connect 19 0 15 0;
#X connect 19 1 14 0;
#X connect 19 2 34 0;
#X connect 20 0 32 1;
#X connect 21 0 31 1;
#X connect 22 0 30 1;
#X connect 26 0 27 0;
#X connect 27 0 0 0;
#X connect 28 0 13 0;
#X connect 29 0 28 1;
#X connect 30 0 8 3;
#X connect 30 0 23 0;
#X connect 31 0 8 2;
#X connect 31 0 24 0;
#X connect 32 0 8 1;
#X connect 33 0 8 0;
#X connect 34 0 36 0;
#X connect 35 0 4 0;
#X connect 36 0 15 1;
#X connect 36 1 40 0;
#X connect 37 0 43 0;
#X connect 38 0 37 0;
#X connect 39 0 45 0;
#X connect 40 0 18 1;
#X connect 42 0 37 0;
#X connect 43 0 44 0;
#X connect 44 0 40 1;
#X connect 44 0 41 0;
#X connect 45 0 38 0;
