#N canvas 204 57 803 628 10;
#X obj 257 115 unpack f f f f;
#X obj 254 43 inlet chord_freq;
#X obj 103 40 inlet dur_amp;
#X obj 118 388 pack f f f;
#X obj 90 333 randomize 5;
#X obj 127 353 randomize 10;
#X obj 109 83 unpack f f;
#X obj 90 310 spigot;
#X obj 123 286 > 1;
#X obj 242 411 instr_synth;
#X obj 242 387 pack f f f;
#X obj 214 332 randomize 5;
#X obj 251 352 randomize 10;
#X obj 214 309 spigot;
#X obj 247 285 > 1;
#X obj 372 386 pack f f f;
#X obj 344 331 randomize 5;
#X obj 381 351 randomize 10;
#X obj 344 308 spigot;
#X obj 377 284 > 1;
#X obj 496 385 pack f f f;
#X obj 468 330 randomize 5;
#X obj 505 350 randomize 10;
#X obj 468 307 spigot;
#X obj 501 283 > 1;
#X obj 309 499 outlet~;
#X floatatom 25 139 5 0 0 0 - - -;
#X floatatom 69 143 5 0 0 0 - - -;
#X floatatom 421 150 5 0 0 0 - - -;
#X obj 118 412 instr_synth;
#X obj 372 410 instr_synth;
#X obj 496 409 instr_synth;
#X connect 0 0 8 0;
#X connect 0 0 3 1;
#X connect 0 1 14 0;
#X connect 0 1 10 1;
#X connect 0 2 19 0;
#X connect 0 2 15 1;
#X connect 0 3 20 1;
#X connect 0 3 24 0;
#X connect 0 3 28 0;
#X connect 1 0 0 0;
#X connect 2 0 6 0;
#X connect 3 0 29 0;
#X connect 4 0 3 0;
#X connect 5 0 3 2;
#X connect 6 0 7 0;
#X connect 6 0 13 0;
#X connect 6 0 18 0;
#X connect 6 0 23 0;
#X connect 6 0 26 0;
#X connect 6 1 5 0;
#X connect 6 1 12 0;
#X connect 6 1 17 0;
#X connect 6 1 22 0;
#X connect 6 1 27 0;
#X connect 7 0 4 0;
#X connect 8 0 7 1;
#X connect 9 0 25 0;
#X connect 10 0 9 0;
#X connect 11 0 10 0;
#X connect 12 0 10 2;
#X connect 13 0 11 0;
#X connect 14 0 13 1;
#X connect 15 0 30 0;
#X connect 16 0 15 0;
#X connect 17 0 15 2;
#X connect 18 0 16 0;
#X connect 19 0 18 1;
#X connect 20 0 31 0;
#X connect 21 0 20 0;
#X connect 22 0 20 2;
#X connect 23 0 21 0;
#X connect 24 0 23 1;
#X connect 29 0 25 0;
#X connect 30 0 25 0;
#X connect 31 0 25 0;
