#N canvas 221 175 722 461 10;
#X obj 222 379 outlet;
#X obj 168 63 inlet bang;
#X obj 169 197 + 2;
#X obj 168 98 t b b b b;
#X obj 230 197 + 2;
#X obj 194 226 +;
#X obj 112 196 + 2;
#X obj 294 170 f 0;
#X obj 222 318 pack f f f f;
#X obj 142 254 +;
#N canvas 655 124 450 300 reverse4 0;
#X obj 110 7 inlet;
#X obj 163 88 unpack f f f f;
#X obj 115 55 t b a;
#X obj 139 183 pack f f f f;
#X obj 132 131 f;
#X obj 126 217 outlet;
#X connect 0 0 2 0;
#X connect 1 0 3 3;
#X connect 1 1 3 2;
#X connect 1 2 3 1;
#X connect 1 3 4 1;
#X connect 2 0 4 0;
#X connect 2 1 1 0;
#X connect 3 0 5 0;
#X connect 4 0 3 0;
#X restore 222 349 pd reverse4;
#X obj 112 170 random 3;
#X obj 169 171 random 3;
#X obj 230 171 random 3;
#X connect 1 0 3 0;
#X connect 2 0 5 0;
#X connect 3 0 11 0;
#X connect 3 1 12 0;
#X connect 3 2 13 0;
#X connect 3 3 7 0;
#X connect 4 0 5 1;
#X connect 4 0 8 2;
#X connect 5 0 8 1;
#X connect 5 0 9 1;
#X connect 6 0 9 0;
#X connect 7 0 8 3;
#X connect 8 0 10 0;
#X connect 9 0 8 0;
#X connect 10 0 0 0;
#X connect 11 0 6 0;
#X connect 12 0 2 0;
#X connect 13 0 4 0;
