#N canvas 0 22 450 300 10;
#X obj 122 18 inlet freq;
#X obj 128 64 t f b;
#X obj 246 17 inlet seed;
#X obj 184 181 * 2;
#X obj 183 215 - 1;
#X obj 168 246 *;
#X obj 155 276 outlet;
#X floatatom 80 60 5 0 0 0 - - -;
#X floatatom 247 145 5 0 0 0 - - -;
#X msg 211 71 seed \$1;
#X obj 188 117 random 100;
#X obj 185 146 < \$1;
#X connect 0 0 1 0;
#X connect 0 0 7 0;
#X connect 1 0 5 0;
#X connect 1 1 10 0;
#X connect 2 0 9 0;
#X connect 3 0 4 0;
#X connect 4 0 5 1;
#X connect 5 0 6 0;
#X connect 9 0 10 0;
#X connect 10 0 8 0;
#X connect 10 0 11 0;
#X connect 11 0 3 0;
