#N canvas 0 22 450 300 10;
#X obj 233 89 random 2001;
#X obj 70 28 inlet n;
#X obj 234 114 - 1000;
#X obj 235 138 / 1000;
#X obj 315 90 loadbang;
#X obj 313 118 f \$1;
#X obj 312 143 / 100;
#X obj 249 185 *;
#X obj 218 215 *;
#X obj 177 50 t f f b;
#X obj 111 249 +;
#X obj 102 274 outlet;
#X connect 0 0 2 0;
#X connect 1 0 9 0;
#X connect 2 0 3 0;
#X connect 3 0 7 0;
#X connect 4 0 5 0;
#X connect 5 0 6 0;
#X connect 6 0 7 1;
#X connect 7 0 8 1;
#X connect 8 0 10 1;
#X connect 9 0 10 0;
#X connect 9 1 8 0;
#X connect 9 2 0 0;
#X connect 10 0 11 0;
