#N canvas 72 288 416 262 10;
#X obj 54 38 inlet index;
#X obj 93 206 outlet element;
#X obj 93 149 moses 0;
#X obj 131 39 inlet array_spec;
#X obj 131 68 unpack s f;
#X obj 93 178 tabread;
#X msg 131 97 set \$1;
#X obj 188 98 s \$0-max;
#X obj 132 123 r \$0-max;
#X obj 54 122 moses 0;
#X connect 0 0 9 0;
#X connect 2 0 5 0;
#X connect 3 0 4 0;
#X connect 4 0 6 0;
#X connect 4 1 7 0;
#X connect 5 0 1 0;
#X connect 6 0 5 0;
#X connect 8 0 2 1;
#X connect 9 1 2 0;
