#N canvas 212 367 722 461 10;
#X obj 222 379 outlet;
#X obj 222 318 pack f f f f;
#X obj 362 52 inlet chord;
#X obj 169 45 inlet note;
#X obj 301 148 unpack f f f f;
#X obj 213 261 +;
#X obj 240 261 +;
#X obj 267 260 +;
#X obj 294 260 +;
#X floatatom 388 172 5 0 0 0 - - -;
#X connect 1 0 0 0;
#X connect 2 0 4 0;
#X connect 3 0 5 0;
#X connect 3 0 6 0;
#X connect 3 0 7 0;
#X connect 3 0 8 0;
#X connect 4 0 5 1;
#X connect 4 1 6 1;
#X connect 4 2 7 1;
#X connect 4 3 8 1;
#X connect 4 3 9 0;
#X connect 5 0 1 0;
#X connect 6 0 1 1;
#X connect 7 0 1 2;
#X connect 8 0 1 3;
