#N canvas 15 22 450 300 10;
#X obj 191 30 inlet oct;
#X obj 290 35 inlet tuning;
#X obj 77 27 inlet note;
#X obj 78 66 moses -0.5;
#X obj 135 106 +;
#X msg 74 116 0;
#X obj 125 279 outlet freq;
#X obj 290 103 unpack s f f;
#X obj 174 67 *;
#X obj 154 169 read_ro_array;
#X connect 0 0 8 0;
#X connect 1 0 7 0;
#X connect 1 0 9 1;
#X connect 2 0 3 0;
#X connect 3 0 5 0;
#X connect 3 1 4 0;
#X connect 4 0 9 0;
#X connect 5 0 6 0;
#X connect 7 2 8 1;
#X connect 8 0 4 1;
#X connect 9 0 6 0;
