#N canvas 160 170 1100 380 10;
#X obj 40 30 loadbang;
#X msg 40 50 27.5 \, 30.250000000000004 \, 33.0 \, 34.375 \, 36.666666666666664 \, 38.5 \, 41.25 \, 44.0 \, 45.833333333333336 \, 48.125 \, 49.5 \, 52.25 \, 55.0 \, 60.50000000000001 \, 66.0 \, 68.75 \, 73.33333333333333 \, 77.0 \, 82.5 \, 88.0 \, 91.66666666666667 \, 96.25 \, 99.0 \, 104.5 \, 110.0 \, 121.00000000000001 \, 132.0 \, 137.5 \, 146.66666666666666 \, 154.0 \, 165.0 \, 176.0 \, 183.33333333333334 \, 192.5 \, 198.0 \, 209.0 \, 220.0 \, 242.00000000000003 \, 264.0 \, 275.0 \, 293.3333333333333 \, 308.0 \, 330.0 \, 352.0 \, 366.6666666666667 \, 385.0 \, 396.0 \, 418.0 \, 440.0 \, 484.00000000000006 \, 528.0 \, 550.0 \, 586.6666666666666 \, 616.0 \, 660.0 \, 704.0 \, 733.3333333333334 \, 770.0 \, 792.0 \, 836.0 \, 880.0 \, 968.0000000000001 \, 1056.0 \, 1100.0 \, 1173.3333333333333 \, 1232.0 \, 1320.0 \, 1408.0 \, 1466.6666666666667 \, 1540.0 \, 1584.0 \, 1672.0 \, 1760.0 \, 1936.0000000000002 \, 2112.0 \, 2200.0 \, 2346.6666666666665 \, 2464.0 \, 2640.0 \, 2816.0 \, 2933.3333333333335 \, 3080.0 \, 3168.0 \, 3344.0 \, 3520.0 \, 3872.0000000000005;
#X obj 40 260 write_ro_array;
#X obj 40 280 outlet array_spec;
#X connect 0 0 1 0;
#X connect 1 0 2 0;
#X connect 2 0 3 0;
