#N canvas 160 170 1100 380 10;
#X obj 40 30 loadbang;
#X msg 40 50 28.0 \, 30.0 \, 32.0 \, 34.0 \, 36.0 \, 38.0 \, 42.0 \, 44.0 \, 46.0 \, 48.0 \, 52.0 \, 54.0 \, 58.0 \, 62.0 \, 68.0 \, 70.0 \, 74.0 \, 78.0 \, 84.0 \, 88.0 \, 94.0 \, 100.0 \, 110.0 \, 114.0 \, 120.0 \, 126.0 \, 136.0 \, 142.0 \, 152.0 \, 162.0 \, 178.0 \, 184.0 \, 194.0 \, 204.0 \, 220.0 \, 230.0 \, 246.0 \, 262.0 \, 288.0 \, 298.0 \, 314.0 \, 330.0 \, 356.0 \, 372.0 \, 398.0 \, 424.0 \, 466.0 \, 482.0 \, 508.0 \, 534.0 \, 576.0 \, 602.0 \, 644.0 \, 686.0 \, 754.0 \, 780.0 \, 822.0 \, 864.0 \, 932.0 \, 974.0 \, 1042.0 \, 1110.0 \, 1220.0 \, 1262.0 \, 1330.0 \, 1398.0 \, 1508.0 \, 1576.0 \, 1686.0 \, 1796.0 \, 1974.0 \, 2042.0 \, 2152.0 \, 2262.0 \, 2440.0 \, 2550.0 \, 2728.0 \, 2906.0 \, 3194.0 \, 3304.0 \, 3482.0 \, 3660.0 \, 3948.0 \, 4126.0;
#X obj 40 260 write_ro_array;
#X obj 40 280 outlet array_spec;
#X connect 0 0 1 0;
#X connect 1 0 2 0;
#X connect 2 0 3 0;
