#N canvas 160 170 1100 380 10;
#X obj 40 30 loadbang;
#X msg 40 50 28.097831852915647 \, 30.30883129879612 \, 32.097567425069364 \, 34.62330336663584 \, 37.46377580388753 \, 39.674775249768786 \, 42.01626123751156 \, 45.46324694819731 \, 49.040719200739886 \, 51.93495504995376 \, 56.021681650015395 \, 60.61766259759224 \, 64.19513485013873 \, 67.98373876248844 \, 73.56107880110983 \, 79.34955049953757 \, 84.03252247502311 \, 90.64498501665126 \, 98.08143840147977 \, 103.86991009990751 \, 110.0 \, 119.02432574930714 \, 128.39026970027746 \, 135.96747752497689 \, 146.66666666666666 \, 158.69910099907514 \, 168.06504495004623 \, 177.98373876248843 \, 192.58540455041617 \, 207.73982019981503 \, 220.0 \, 237.3116516833179 \, 256.7805394005549 \, 271.93495504995377 \, 287.98373876248843 \, 311.6097302997225 \, 336.13008990009246 \, 355.96747752497686 \, 383.97831834998453 \, 415.47964039963006 \, 440.0 \, 465.96747752497686 \, 504.19513485013874 \, 543.8699100999075 \, 575.9674775249769 \, 621.2899700333024 \, 672.2601798001849 \, 711.9349550499537 \, 753.9512162874653 \, 815.8048651498613 \, 880.0 \, 931.9349550499537 \, 1005.268288383287 \, 1087.739820199815 \, 1151.9349550499537 \, 1219.9186938124421 \, 1320.0 \, 1423.8699100999074 \, 1507.9024325749306 \, 1626.5582584165895 \, 1760.0 \, 1863.8699100999074 \, 1973.8699100999074 \, 2135.804865149861 \, 2303.8699100999074 \, 2439.8373876248843 \, 2631.8265467998767 \, 2847.739820199815 \, 3015.804865149861 \, 3193.7886039123496 \, 3455.804865149861 \, 3727.739820199815 \, 3947.739820199815;
#X obj 40 260 write_ro_array;
#X obj 40 280 outlet array_spec;
#X connect 0 0 1 0;
#X connect 1 0 2 0;
#X connect 2 0 3 0;
