#N canvas 160 170 1100 380 10;
#X obj 40 30 loadbang;
#X msg 40 50 27.5 \, 29.333333333333332 \, 30.9375 \, 33.0 \, 34.375 \, 36.666666666666664 \, 38.5 \, 41.25 \, 44.0 \, 45.833333333333336 \, 49.5 \, 51.5625 \, 55.0 \, 58.666666666666664 \, 61.875 \, 66.0 \, 68.75 \, 73.33333333333333 \, 77.0 \, 82.5 \, 88.0 \, 91.66666666666667 \, 99.0 \, 103.125 \, 110.0 \, 117.33333333333333 \, 123.75 \, 132.0 \, 137.5 \, 146.66666666666666 \, 154.0 \, 165.0 \, 176.0 \, 183.33333333333334 \, 198.0 \, 206.25 \, 220.0 \, 234.66666666666666 \, 247.5 \, 264.0 \, 275.0 \, 293.3333333333333 \, 308.0 \, 330.0 \, 352.0 \, 366.6666666666667 \, 396.0 \, 412.5 \, 440.0 \, 469.3333333333333 \, 495.0 \, 528.0 \, 550.0 \, 586.6666666666666 \, 616.0 \, 660.0 \, 704.0 \, 733.3333333333334 \, 792.0 \, 825.0 \, 880.0 \, 938.6666666666666 \, 990.0 \, 1056.0 \, 1100.0 \, 1173.3333333333333 \, 1232.0 \, 1320.0 \, 1408.0 \, 1466.6666666666667 \, 1584.0 \, 1650.0 \, 1760.0 \, 1877.3333333333333 \, 1980.0 \, 2112.0 \, 2200.0 \, 2346.6666666666665 \, 2464.0 \, 2640.0 \, 2816.0 \, 2933.3333333333335 \, 3168.0 \, 3300.0 \, 3520.0 \, 3754.6666666666665 \, 3960.0;
#X obj 40 260 write_ro_array;
#X obj 40 280 outlet array_spec;
#X connect 0 0 1 0;
#X connect 1 0 2 0;
#X connect 2 0 3 0;
