#N canvas 160 170 1100 380 10;
#X obj 40 30 loadbang;
#X msg 40 50 28.097831852915647 \, 30.30883129879612 \, 31.675304105455098 \, 33.886303551341825 \, 36.09730299722855 \, 38.30830244311528 \, 39.674775249768786 \, 43.25224750231371 \, 45.46324694819731 \, 49.040719200739886 \, 51.251718646626614 \, 54.82919089916763 \, 58.40666315171177 \, 61.98413540425122 \, 64.19513485013873 \, 69.98360654856725 \, 73.56107880110983 \, 79.34955049953757 \, 82.92702275208171 \, 88.71549445050789 \, 94.5039661489372 \, 100.2924378473665 \, 103.86991009990751 \, 113.23585405087783 \, 119.02432574930714 \, 128.39026970027746 \, 134.1787413987052 \, 143.54468534967629 \, 152.9106293006474 \, 162.27657325161772 \, 168.06504495004623 \, 183.21946059944509 \, 192.58540455041617 \, 207.73982019981503 \, 217.1057641507869 \, 232.26017980018497 \, 247.41459544958383 \, 262.5690110989842 \, 271.93495504995377 \, 296.4553146503237 \, 311.6097302997225 \, 336.13008990009246 \, 351.2845055494921 \, 375.80486514986126 \, 400.3252247502312 \, 424.84558435060194 \, 440.0 \, 479.6747752497688 \, 504.19513485013874 \, 543.8699100999075 \, 568.3902697002775 \, 608.0650449500463 \, 647.7398201998151 \, 687.4145954495838 \, 711.9349550499537 \, 776.1300899000925 \, 815.8048651498613 \, 880.0 \, 919.6747752497688 \, 983.8699100999075 \, 1048.0650449500463 \, 1112.260179800185 \, 1151.9349550499537 \, 1255.8048651498614 \, 1320.0 \, 1423.8699100999074 \, 1488.0650449500463 \, 1591.9349550499537 \, 1695.8048651498614 \, 1799.6747752497688 \, 1863.8699100999074 \, 2031.9349550499537 \, 2135.804865149861 \, 2303.8699100999074 \, 2407.739820199815 \, 2575.804865149861 \, 2743.8699100999074 \, 2911.9349550499537 \, 3015.804865149861 \, 3287.739820199815 \, 3455.804865149861 \, 3727.739820199815 \, 3895.804865149861 \, 4167.739820199815;
#X obj 40 260 write_ro_array;
#X obj 40 280 outlet array_spec;
#X connect 0 0 1 0;
#X connect 1 0 2 0;
#X connect 2 0 3 0;
