#N canvas 160 170 1100 380 10;
#X obj 40 30 loadbang;
#X msg 40 50 28.097831852915647 \, 30.30883129879612 \, 33.886303551341825 \, 36.09730299722855 \, 39.674775249768786 \, 42.4077208630797 \, 45.46324694819731 \, 49.040719200739886 \, 54.82919089916763 \, 58.40666315171177 \, 64.19513485013873 \, 68.6171337419114 \, 73.56107880110983 \, 79.34955049953757 \, 88.71549445050789 \, 94.5039661489372 \, 103.86991009990751 \, 111.0248546049911 \, 119.02432574930714 \, 128.39026970027746 \, 143.54468534967629 \, 152.9106293006474 \, 168.06504495004623 \, 179.6419883469025 \, 192.58540455041617 \, 207.73982019981503 \, 232.26017980018497 \, 247.41459544958383 \, 271.93495504995377 \, 290.6668429518936 \, 311.6097302997225 \, 336.13008990009246 \, 375.80486514986126 \, 400.3252247502312 \, 440.0 \, 470.3088312987961 \, 504.19513485013874 \, 543.8699100999075 \, 608.0650449500463 \, 647.7398201998151 \, 711.9349550499537 \, 760.9756742506929 \, 815.8048651498613 \, 880.0 \, 983.8699100999075 \, 1048.0650449500463 \, 1151.9349550499537 \, 1231.2845055494922 \, 1320.0 \, 1423.8699100999074 \, 1591.9349550499537 \, 1695.8048651498614 \, 1863.8699100999074 \, 1992.260179800185 \, 2135.804865149861 \, 2303.8699100999074 \, 2575.804865149861 \, 2743.8699100999074 \, 3015.804865149861 \, 3223.5446853496765 \, 3455.804865149861 \, 3727.739820199815 \, 4167.739820199815;
#X obj 40 260 write_ro_array;
#X obj 40 280 outlet array_spec;
#X connect 0 0 1 0;
#X connect 1 0 2 0;
#X connect 2 0 3 0;
