#N canvas 267 212 811 512 10;
#X floatatom 131 50 5 0 0 0 - - -;
#X floatatom 97 250 5 0 0 0 - - -;
#X obj 97 276 osc~;
#X obj 201 119 +;
#X msg 192 13 2;
#X msg 225 13 3;
#X msg 259 14 4;
#X msg 300 13 2;
#X msg 333 13 3;
#X msg 367 14 4;
#X msg 407 13 2;
#X msg 440 13 3;
#X msg 474 14 4;
#X obj 192 90 bondo 2;
#X floatatom 199 148 5 0 0 0 - - -;
#X obj 320 117 +;
#X obj 311 88 bondo 2;
#X floatatom 318 146 5 0 0 0 - - -;
#X obj 428 117 +;
#X obj 419 88 bondo 2;
#X floatatom 426 146 5 0 0 0 - - -;
#X floatatom 199 249 5 0 0 0 - - -;
#X obj 199 275 osc~;
#X floatatom 322 247 5 0 0 0 - - -;
#X obj 322 273 osc~;
#X floatatom 424 246 5 0 0 0 - - -;
#X obj 424 272 osc~;
#N canvas 182 302 450 300 distort 0;
#X obj 119 28 inlet~;
#X obj 108 229 outlet~;
#X obj 98 155 sin~;
#X obj 98 179 *~;
#X obj 137 179 *~;
#X obj 235 23 inlet ctl;
#X obj 235 46 / 127;
#X obj 251 74 sig~;
#X obj 251 97 lop~ 10;
#X obj 137 155 *~ 1.8;
#X obj 216 74 * -1;
#X obj 216 98 + 1;
#X obj 216 122 sig~;
#X obj 216 145 lop~ 10;
#X connect 0 0 2 0;
#X connect 0 0 9 0;
#X connect 2 0 3 0;
#X connect 3 0 1 0;
#X connect 4 0 1 0;
#X connect 5 0 6 0;
#X connect 6 0 7 0;
#X connect 6 0 10 0;
#X connect 7 0 8 0;
#X connect 8 0 3 1;
#X connect 9 0 4 0;
#X connect 10 0 11 0;
#X connect 11 0 12 0;
#X connect 12 0 13 0;
#X connect 13 0 4 1;
#X restore 224 406 pd distort;
#X obj 359 368 hsl 128 15 0 127 0 0 empty empty empty -2 -8 0 10 -262144
-1 -1 0 1;
#X obj 224 428 *~ 0.1;
#X obj 218 465 dac~;
#X obj 666 83 s \$0-scale;
#X obj 97 221 read_ro_array;
#X obj 119 195 r \$0-scale;
#X obj 221 196 r \$0-scale;
#X obj 344 195 r \$0-scale;
#X obj 446 196 r \$0-scale;
#X obj 666 60 any;
#X obj 666 39 bng 15 250 50 0 empty empty empty 17 7 0 10 -262144 -1
-1;
#X obj 199 222 read_ro_array;
#X obj 322 221 read_ro_array;
#X obj 424 222 read_ro_array;
#X obj 666 152 s \$0-scale;
#X obj 666 129 any;
#X obj 666 108 bng 15 250 50 0 empty empty empty 17 7 0 10 -262144
-1 -1;
#X obj 665 220 s \$0-scale;
#X obj 665 197 any;
#X obj 665 176 bng 15 250 50 0 empty empty empty 17 7 0 10 -262144
-1 -1;
#X obj 666 289 s \$0-scale;
#X obj 666 266 any;
#X obj 666 245 bng 15 250 50 0 empty empty empty 17 7 0 10 -262144
-1 -1;
#X obj 665 356 s \$0-scale;
#X obj 665 333 any;
#X obj 665 312 bng 15 250 50 0 empty empty empty 17 7 0 10 -262144
-1 -1;
#X obj 664 426 s \$0-scale;
#X obj 664 403 any;
#X obj 664 382 bng 15 250 50 0 empty empty empty 17 7 0 10 -262144
-1 -1;
#X obj 682 382 tuning_phint8;
#X obj 135 21 bng 15 250 50 0 empty empty empty 17 7 0 10 -262144 -1
-1;
#X obj 683 312 tuning_fib8;
#X obj 684 245 tuning_phint6;
#X obj 683 176 tuning_BP;
#X obj 684 108 tuning_just;
#X obj 684 39 tuning_Equal;
#X obj 524 276 r \$0-scale;
#X obj 524 301 unpack s f;
#X floatatom 550 334 5 0 0 0 - - -;
#X connect 0 0 13 0;
#X connect 0 0 32 0;
#X connect 1 0 2 0;
#X connect 2 0 27 0;
#X connect 3 0 14 0;
#X connect 3 0 16 0;
#X connect 4 0 13 1;
#X connect 5 0 13 1;
#X connect 6 0 13 1;
#X connect 7 0 16 1;
#X connect 8 0 16 1;
#X connect 9 0 16 1;
#X connect 10 0 19 1;
#X connect 11 0 19 1;
#X connect 12 0 19 1;
#X connect 13 0 3 0;
#X connect 13 1 3 1;
#X connect 14 0 39 0;
#X connect 15 0 17 0;
#X connect 15 0 19 0;
#X connect 16 0 15 0;
#X connect 16 1 15 1;
#X connect 17 0 40 0;
#X connect 18 0 20 0;
#X connect 19 0 18 0;
#X connect 19 1 18 1;
#X connect 20 0 41 0;
#X connect 21 0 22 0;
#X connect 22 0 27 0;
#X connect 23 0 24 0;
#X connect 24 0 27 0;
#X connect 25 0 26 0;
#X connect 26 0 27 0;
#X connect 27 0 29 0;
#X connect 28 0 27 1;
#X connect 29 0 30 0;
#X connect 29 0 30 1;
#X connect 32 0 1 0;
#X connect 33 0 32 1;
#X connect 34 0 39 1;
#X connect 35 0 40 1;
#X connect 36 0 41 1;
#X connect 37 0 31 0;
#X connect 38 0 37 0;
#X connect 39 0 21 0;
#X connect 40 0 23 0;
#X connect 41 0 25 0;
#X connect 43 0 42 0;
#X connect 44 0 43 0;
#X connect 46 0 45 0;
#X connect 47 0 46 0;
#X connect 49 0 48 0;
#X connect 50 0 49 0;
#X connect 52 0 51 0;
#X connect 53 0 52 0;
#X connect 55 0 54 0;
#X connect 56 0 55 0;
#X connect 57 0 55 0;
#X connect 58 0 0 0;
#X connect 59 0 52 0;
#X connect 60 0 49 0;
#X connect 61 0 46 0;
#X connect 62 0 43 0;
#X connect 63 0 37 0;
#X connect 64 0 65 0;
#X connect 65 1 66 0;
