#N canvas 598 123 686 437 10;
#X obj 187 318 instr_synth;
#X obj 241 171 r \$0-scale;
#X obj 219 197 read_ro_array;
#X obj 429 102 s \$0-scale;
#X obj 427 57 tuning_phint6;
#X obj 179 30 bng 15 250 50 0 empty empty empty 17 7 0 10 -262144 -1
-1;
#X floatatom 249 234 5 0 0 0 - - -;
#X obj 187 353 *~ 0.3;
#X obj 185 408 dac~;
#X obj 187 121 random 12;
#X obj 201 154 + 36;
#X obj 162 94 t b b;
#X obj 181 68 delay 1000;
#X obj 104 127 random 5;
#X obj 104 154 + 1;
#X obj 104 178 * 100;
#X obj 140 38 t b f;
#X obj 175 250 pack f f;
#X msg 187 285 \$2 \$1 1;
#X connect 0 0 7 0;
#X connect 1 0 2 1;
#X connect 2 0 6 0;
#X connect 2 0 17 0;
#X connect 4 0 3 0;
#X connect 5 0 12 0;
#X connect 7 0 8 0;
#X connect 7 0 8 1;
#X connect 9 0 10 0;
#X connect 10 0 2 0;
#X connect 11 0 13 0;
#X connect 11 1 9 0;
#X connect 12 0 11 0;
#X connect 13 0 14 0;
#X connect 14 0 15 0;
#X connect 15 0 16 0;
#X connect 16 0 12 0;
#X connect 16 1 12 1;
#X connect 16 1 17 1;
#X connect 17 0 18 0;
#X connect 18 0 0 0;
