#N canvas 435 70 904 652 10;
#X obj 369 180 r \$0-scale;
#X obj 577 162 s \$0-scale;
#X obj 211 5 bng 15 250 50 0 empty empty empty 17 7 0 10 -262144 -1
-1;
#X obj 252 572 dac~;
#X obj 278 268 chord_freq;
#X obj 202 136 t b b f;
#X obj 347 77 rand_chord;
#X obj 274 211 shift_chord;
#X msg 253 12 stop;
#X obj 381 273 chord_freq;
#X obj 207 74 random 1;
#X obj 240 424 random 1000;
#X obj 213 43 metro 2400;
#X msg 332 422 2400 0.7;
#X obj 567 88 bng 15 250 50 0 empty empty empty 17 7 0 10 -262144 -1
-1;
#X obj 576 114 any;
#X obj 703 161 s \$0-scale;
#X obj 693 87 bng 15 250 50 0 empty empty empty 17 7 0 10 -262144 -1
-1;
#X obj 702 113 any;
#X obj 591 86 tuning_Phint6;
#X obj 261 534 *~ 0.1;
#X obj 717 85 tuning_Equal;
#X obj 701 273 s \$0-scale;
#X obj 691 199 bng 15 250 50 0 empty empty empty 17 7 0 10 -262144
-1 -1;
#X obj 700 225 any;
#X obj 715 197 tuning_Phint8;
#X obj 585 273 s \$0-scale;
#X obj 575 199 bng 15 250 50 0 empty empty empty 17 7 0 10 -262144
-1 -1;
#X obj 584 225 any;
#X obj 599 197 tuning_BP;
#X obj 699 383 s \$0-scale;
#X obj 689 309 bng 15 250 50 0 empty empty empty 17 7 0 10 -262144
-1 -1;
#X obj 698 335 any;
#X obj 583 383 s \$0-scale;
#X obj 573 309 bng 15 250 50 0 empty empty empty 17 7 0 10 -262144
-1 -1;
#X obj 582 335 any;
#X msg 582 359 \$1 \$2 16;
#X obj 597 307 tuning_Just;
#X obj 713 307 tuning_Fib8;
#X msg 698 359 \$1 \$2 16;
#X msg 584 249 \$1 \$2 14;
#N canvas 723 246 450 300 note_pattern 0;
#X obj 95 14 inlet bang;
#X obj 114 257 outlet shift;
#X obj 153 83 every 4;
#X obj 140 120 f;
#X msg 104 161 seed \$1;
#X obj 91 44 t b b b;
#X obj 203 110 random 1000;
#X obj 84 225 * 2;
#X obj 84 193 random 2;
#X obj 209 79 every 18;
#X connect 0 0 5 0;
#X connect 2 0 3 0;
#X connect 3 0 4 0;
#X connect 4 0 8 0;
#X connect 5 0 8 0;
#X connect 5 1 2 0;
#X connect 5 2 9 0;
#X connect 6 0 3 1;
#X connect 7 0 1 0;
#X connect 8 0 7 0;
#X connect 9 0 6 0;
#X restore 236 173 pd note_pattern;
#X msg 700 249 \$1 \$2 16;
#X msg 702 137 \$1 \$2 16;
#X msg 576 138 \$1 \$2 10;
#X obj 240 374 r \$0-bar;
#X obj 96 71 s \$0-bar;
#X obj 474 419 random 1000;
#X obj 474 369 r \$0-bar;
#X obj 347 27 r \$0-bar;
#X obj 439 212 r \$0-scale;
#X obj 201 106 + 1;
#X obj 396 235 + 2;
#X msg 136 426 2400 0.7;
#X obj 332 452 play_arpeggio 12 40;
#X obj 347 52 every 18;
#X obj 474 394 every 28;
#X obj 240 399 every 32;
#X obj 136 456 play_arpeggio 4 35;
#X obj 648 16 loadbang;
#X obj 649 46 delay 200;
#X connect 0 0 4 2;
#X connect 2 0 12 0;
#X connect 4 0 58 1;
#X connect 5 0 53 0;
#X connect 5 0 13 0;
#X connect 5 1 41 0;
#X connect 5 2 4 1;
#X connect 5 2 52 0;
#X connect 6 0 7 1;
#X connect 7 0 4 0;
#X connect 7 0 9 0;
#X connect 8 0 12 0;
#X connect 9 0 54 1;
#X connect 10 0 51 0;
#X connect 11 0 58 2;
#X connect 12 0 10 0;
#X connect 12 0 46 0;
#X connect 13 0 54 0;
#X connect 14 0 15 0;
#X connect 15 0 44 0;
#X connect 17 0 18 0;
#X connect 18 0 43 0;
#X connect 19 0 15 1;
#X connect 20 0 3 0;
#X connect 20 0 3 1;
#X connect 21 0 18 1;
#X connect 23 0 24 0;
#X connect 24 0 42 0;
#X connect 25 0 24 1;
#X connect 27 0 28 0;
#X connect 28 0 40 0;
#X connect 29 0 28 1;
#X connect 31 0 32 0;
#X connect 32 0 39 0;
#X connect 34 0 35 0;
#X connect 35 0 36 0;
#X connect 36 0 33 0;
#X connect 37 0 35 1;
#X connect 38 0 32 1;
#X connect 39 0 30 0;
#X connect 40 0 26 0;
#X connect 41 0 7 0;
#X connect 42 0 22 0;
#X connect 43 0 16 0;
#X connect 44 0 1 0;
#X connect 45 0 57 0;
#X connect 47 0 54 2;
#X connect 48 0 56 0;
#X connect 49 0 55 0;
#X connect 50 0 9 2;
#X connect 51 0 5 0;
#X connect 52 0 9 1;
#X connect 53 0 58 0;
#X connect 54 0 20 0;
#X connect 55 0 6 0;
#X connect 56 0 47 0;
#X connect 57 0 11 0;
#X connect 58 0 20 0;
#X connect 59 0 60 0;
#X connect 60 0 31 0;
